REM DIRINDEX 1\2,1\3,1\4,1\5\6,1\5\7,1\8
REM DIRNAME folder01,folder02,folder03,folder04,folder05,folder06,folder07,folder08
TITLE ""
FILE "134 Åy134ÅzUnit8 (1513 forum_1524 flip).mp3" MP3
  TRACK 01 AUDIO
    TITLE "0:"
    INDEX 01 00:00:00
  TRACK 02 AUDIO
    TITLE "2:cjc115_5252"
    INDEX 01 00:00:07
  TRACK 03 AUDIO
    TITLE "0:"
    INDEX 01 00:01:22
  TRACK 04 AUDIO
    TITLE "3:cjc115_5253"
    INDEX 01 00:01:34
  TRACK 05 AUDIO
    TITLE "0:"
    INDEX 01 00:04:19
  TRACK 06 AUDIO
    TITLE "4:cjc115_5254"
    INDEX 01 00:04:31
  TRACK 07 AUDIO
    TITLE "0:"
    INDEX 01 00:08:40
  TRACK 08 AUDIO
    TITLE "2:cjc115_5255"
    INDEX 01 00:09:51
  TRACK 09 AUDIO
    TITLE "0:"
    INDEX 01 00:10:63
  TRACK 10 AUDIO
    TITLE "3:cjc115_5256"
    INDEX 01 00:10:74
  TRACK 11 AUDIO
    TITLE "0:"
    INDEX 01 00:12:28
  TRACK 12 AUDIO
    TITLE "4:cjc115_5257"
    INDEX 01 00:12:40
  TRACK 13 AUDIO
    TITLE "0:"
    INDEX 01 00:16:24
  TRACK 14 AUDIO
    TITLE "2:cjc115_5258"
    INDEX 01 00:17:33
  TRACK 15 AUDIO
    TITLE "0:"
    INDEX 01 00:18:58
  TRACK 16 AUDIO
    TITLE "3:cjc115_5259"
    INDEX 01 00:18:70
  TRACK 17 AUDIO
    TITLE "0:"
    INDEX 01 00:20:24
  TRACK 18 AUDIO
    TITLE "4:cjc115_5260"
    INDEX 01 00:20:36
  TRACK 19 AUDIO
    TITLE "0:"
    INDEX 01 00:23:67
  TRACK 20 AUDIO
    TITLE "2:cjc115_5261"
    INDEX 01 00:25:01
  TRACK 21 AUDIO
    TITLE "0:"
    INDEX 01 00:26:22
  TRACK 22 AUDIO
    TITLE "3:cjc115_5262"
    INDEX 01 00:26:34
  TRACK 23 AUDIO
    TITLE "0:"
    INDEX 01 00:28:33
  TRACK 24 AUDIO
    TITLE "4:cjc115_5263"
    INDEX 01 00:28:45
  TRACK 25 AUDIO
    TITLE "0:"
    INDEX 01 00:32:39
  TRACK 26 AUDIO
    TITLE "2:cjc115_5264"
    INDEX 01 00:33:48
  TRACK 27 AUDIO
    TITLE "0:"
    INDEX 01 00:34:57
  TRACK 28 AUDIO
    TITLE "3:cjc115_5265"
    INDEX 01 00:34:71
  TRACK 29 AUDIO
    TITLE "0:"
    INDEX 01 00:36:03
  TRACK 30 AUDIO
    TITLE "4:cjc115_5266"
    INDEX 01 00:36:17
  TRACK 31 AUDIO
    TITLE "0:"
    INDEX 01 00:40:54
  TRACK 32 AUDIO
    TITLE "2:cjc115_5267"
    INDEX 01 00:41:65
  TRACK 33 AUDIO
    TITLE "0:"
    INDEX 01 00:43:15
  TRACK 34 AUDIO
    TITLE "3:cjc115_5268"
    INDEX 01 00:43:23
  TRACK 35 AUDIO
    TITLE "0:"
    INDEX 01 00:44:40
  TRACK 36 AUDIO
    TITLE "4:cjc115_5269"
    INDEX 01 00:44:42
  TRACK 37 AUDIO
    TITLE "0:"
    INDEX 01 00:48:10
  TRACK 38 AUDIO
    TITLE "2:cjc115_5270"
    INDEX 01 00:49:21
  TRACK 39 AUDIO
    TITLE "0:"
    INDEX 01 00:50:54
  TRACK 40 AUDIO
    TITLE "3:cjc115_5271"
    INDEX 01 00:50:64
  TRACK 41 AUDIO
    TITLE "0:"
    INDEX 01 00:53:13
  TRACK 42 AUDIO
    TITLE "4:cjc115_5272"
    INDEX 01 00:53:15
  TRACK 43 AUDIO
    TITLE "0:"
    INDEX 01 00:56:57
  TRACK 44 AUDIO
    TITLE "2:cjc115_5273"
    INDEX 01 00:57:66
  TRACK 45 AUDIO
    TITLE "0:"
    INDEX 01 00:59:24
  TRACK 46 AUDIO
    TITLE "3:cjc115_5274"
    INDEX 01 00:59:36
  TRACK 47 AUDIO
    TITLE "0:"
    INDEX 01 01:01:36
  TRACK 48 AUDIO
    TITLE "4:cjc115_5275"
    INDEX 01 01:01:46
  TRACK 49 AUDIO
    TITLE "0:"
    INDEX 01 01:05:40
  TRACK 50 AUDIO
    TITLE "2:cjc115_5276"
    INDEX 01 01:06:51
  TRACK 51 AUDIO
    TITLE "0:"
    INDEX 01 01:08:07
  TRACK 52 AUDIO
    TITLE "3:cjc115_5277"
    INDEX 01 01:08:17
  TRACK 53 AUDIO
    TITLE "0:"
    INDEX 01 01:11:15
  TRACK 54 AUDIO
    TITLE "4:cjc115_5278"
    INDEX 01 01:11:21
  TRACK 55 AUDIO
    TITLE "0:"
    INDEX 01 01:14:45
  TRACK 56 AUDIO
    TITLE "2:cjc115_5279"
    INDEX 01 01:15:56
  TRACK 57 AUDIO
    TITLE "0:"
    INDEX 01 01:17:06
  TRACK 58 AUDIO
    TITLE "3:cjc115_5280"
    INDEX 01 01:17:20
  TRACK 59 AUDIO
    TITLE "0:"
    INDEX 01 01:18:66
  TRACK 60 AUDIO
    TITLE "4:cjc115_5281"
    INDEX 01 01:19:01
  TRACK 61 AUDIO
    TITLE "0:"
    INDEX 01 01:22:31
  TRACK 62 AUDIO
    TITLE "2:cjc115_5282"
    INDEX 01 01:23:42
  TRACK 63 AUDIO
    TITLE "0:"
    INDEX 01 01:24:51
  TRACK 64 AUDIO
    TITLE "3:cjc115_5283"
    INDEX 01 01:24:65
  TRACK 65 AUDIO
    TITLE "0:"
    INDEX 01 01:27:12
  TRACK 66 AUDIO
    TITLE "4:cjc115_5284"
    INDEX 01 01:27:22
  TRACK 67 AUDIO
    TITLE "0:"
    INDEX 01 01:31:18
  TRACK 68 AUDIO
    TITLE "2:cjc115_5285"
    INDEX 01 01:32:27
  TRACK 69 AUDIO
    TITLE "0:"
    INDEX 01 01:33:27
  TRACK 70 AUDIO
    TITLE "3:cjc115_5286"
    INDEX 01 01:33:36
  TRACK 71 AUDIO
    TITLE "0:"
    INDEX 01 01:36:27
  TRACK 72 AUDIO
    TITLE "4:cjc115_5287"
    INDEX 01 01:36:37
  TRACK 73 AUDIO
    TITLE "0:"
    INDEX 01 01:39:66
